<svg xmlns="http://www.w3.org/2000/svg" x="0px" y="0px"
width="50" height="50"
viewBox="0 0 100 100">
<path fill="#f1bc19" d="M77 12A1 1 0 1 0 77 14A1 1 0 1 0 77 12Z"></path><path fill="#e4e4f9" d="M50 13A37 37 0 1 0 50 87A37 37 0 1 0 50 13Z"></path><path fill="#f1bc19" d="M83 11A4 4 0 1 0 83 19A4 4 0 1 0 83 11Z"></path><path fill="#8889b9" d="M87 22A2 2 0 1 0 87 26A2 2 0 1 0 87 22Z"></path><path fill="#fbcd59" d="M81 74A2 2 0 1 0 81 78 2 2 0 1 0 81 74zM15 59A4 4 0 1 0 15 67 4 4 0 1 0 15 59z"></path><path fill="#8889b9" d="M25 85A2 2 0 1 0 25 89A2 2 0 1 0 25 85Z"></path><path fill="#fff" d="M18.5 49A2.5 2.5 0 1 0 18.5 54 2.5 2.5 0 1 0 18.5 49zM79.5 32A1.5 1.5 0 1 0 79.5 35 1.5 1.5 0 1 0 79.5 32z"></path><g><path fill="#84a7d7" d="M50 25.625A24.25 24.25 0 1 0 50 74.125A24.25 24.25 0 1 0 50 25.625Z"></path><path fill="#472b29" d="M50,74.825c-13.758,0-24.95-11.192-24.95-24.95S36.242,24.925,50,24.925s24.95,11.192,24.95,24.95 S63.758,74.825,50,74.825z M50,26.325c-12.985,0-23.55,10.564-23.55,23.55S37.015,73.425,50,73.425s23.55-10.564,23.55-23.55 S62.985,26.325,50,26.325z"></path></g><g><path fill="#fffef4" d="M49.937 29.625A20.437 20.375 0 1 0 49.937 70.375A20.437 20.375 0 1 0 49.937 29.625Z"></path></g><g><path fill="#472b29" d="M69.424,44.625c-0.214,0-0.412-0.138-0.478-0.353c-0.089-0.288-0.184-0.572-0.284-0.854 c-0.39-1.089-0.885-2.155-1.47-3.169c-0.139-0.239-0.057-0.545,0.183-0.683c0.239-0.14,0.543-0.058,0.683,0.183 c0.616,1.065,1.136,2.187,1.546,3.331c0.106,0.297,0.205,0.595,0.298,0.896c0.082,0.265-0.066,0.544-0.33,0.625 C69.522,44.618,69.473,44.625,69.424,44.625z"></path></g><g><path fill="#472b29" d="M50,70.75c-11.511,0-20.875-9.337-20.875-20.813S38.489,29.125,50,29.125 c5.975,0,11.674,2.56,15.636,7.023c0.3,0.337,0.588,0.685,0.865,1.041c0.17,0.218,0.131,0.531-0.088,0.701 c-0.217,0.169-0.531,0.13-0.701-0.088c-0.264-0.339-0.538-0.669-0.823-0.99c-3.773-4.25-9.199-6.688-14.889-6.688 c-10.959,0-19.875,8.888-19.875,19.813S39.041,69.75,50,69.75s19.875-8.888,19.875-19.813c0-0.992-0.074-1.992-0.222-2.973 c-0.041-0.273,0.146-0.527,0.42-0.568c0.271-0.036,0.527,0.146,0.568,0.42c0.155,1.029,0.233,2.079,0.233,3.121 C70.875,61.413,61.511,70.75,50,70.75z"></path></g><g><path fill="#eab436" d="M37.792,50.21l4.243,4.243c0.391,0.39,1.024,0.39,1.414,0c0.391-0.391,0.391-1.024,0-1.415 L40.912,50.5h21.709c0.552,0,1-0.448,1-1s-0.448-1-1-1H40.912l2.537-2.538c0.391-0.391,0.391-1.024,0-1.415s-1.024-0.391-1.414,0 l-4.243,4.243c-0.196,0.196-0.293,0.453-0.292,0.709C37.499,49.757,37.597,50.014,37.792,50.21z"></path><path fill="#472b29" d="M42.742,54.994c-0.32,0-0.641-0.121-0.884-0.365l-4.242-4.242c-0.237-0.237-0.367-0.553-0.366-0.888 c-0.001-0.334,0.129-0.648,0.366-0.885l4.242-4.243c0.486-0.488,1.281-0.488,1.768,0c0.236,0.236,0.366,0.55,0.366,0.884 c0,0.335-0.13,0.648-0.366,0.885l-2.11,2.11h21.105c0.689,0,1.25,0.561,1.25,1.25s-0.561,1.25-1.25,1.25H41.515l2.111,2.111 c0.236,0.236,0.366,0.55,0.366,0.884s-0.13,0.647-0.366,0.884C43.383,54.873,43.063,54.994,42.742,54.994z M42.742,44.505 c-0.192,0-0.384,0.073-0.53,0.22l-4.242,4.243c-0.143,0.142-0.221,0.33-0.22,0.531c-0.001,0.203,0.077,0.392,0.22,0.534 l4.242,4.242c0.293,0.293,0.768,0.293,1.061,0c0.292-0.292,0.292-0.769,0-1.061l-2.965-2.965h22.313c0.413,0,0.75-0.337,0.75-0.75 s-0.337-0.75-0.75-0.75H40.309l2.964-2.964c0.293-0.293,0.293-0.769,0-1.062C43.126,44.578,42.935,44.505,42.742,44.505z"></path></g>
</svg>