<svg xmlns="http://www.w3.org/2000/svg" x="0px" y="0px"
width="48" height="48"
viewBox="0 0 48 48">
<path fill="#039be5" d="M28.993,29.964L28.993,29.964c0,0-1,4-4.998,4s-4.998-4-4.998-4S8,31.95,8,42.964h31.989 C39.989,31.989,28.993,29.964,28.993,29.964"></path><path fill="#ff9800" d="M23.989,35.964c-5,0-5-6-5-6v-6h10v6C28.989,29.964,28.989,35.964,23.989,35.964z"></path><path fill="#ffa726" d="M34.989,17.964c0,1.105-0.896,2-2,2c-1.106,0-2-0.895-2-2s0.894-2,2-2 C34.093,15.964,34.989,16.859,34.989,17.964"></path><path fill="#ffa726" d="M16.989,17.964c0,1.105-0.896,2-2,2c-1.106,0-2-0.895-2-2s0.894-2,2-2 C16.093,15.964,16.989,16.859,16.989,17.964"></path><path fill="#ffb74d" d="M32.989,11.964c0-7.635-18-4.971-18,0v7c0,4.971,4.028,9,9,9c4.971,0,9-4.029,9-9V11.964z"></path><path fill="#424242" d="M23.995,3C17.923,3,14,8,14,13.974v2.281l1.999,1.71v-4.988l11.994-3.991l3.998,3.991v4.988 l1.999-1.738v-2.253c0-4.015-1.037-7.997-5.997-8.979l-1-1.995H23.995z"></path><path fill="#784719" d="M26.989,17.964c0,0.551,0.448,1,1,1s1-0.449,1-1s-0.448-1-1-1S26.989,17.413,26.989,17.964"></path><path fill="#784719" d="M18.989,17.964c0,0.551,0.448,1,1,1s1-0.449,1-1s-0.448-1-1-1S18.989,17.413,18.989,17.964"></path><path fill="#0288d1" d="M23.989,35.964c5,0,6.745-3.93,6.95-5.428c-1.156-0.424-1.95-0.572-1.95-0.572s-1,4-5,4s-5-4-5-4 s-0.795,0.145-1.952,0.566C17.241,32.025,18.989,35.964,23.989,35.964z"></path><polygon fill="#ffb74d" points="16.011,35.036 13.256,38.5 16.011,39.036 18.011,37.036"></polygon><path fill="#ffb74d" d="M20,46h-5.149C13.829,46,13,45.171,13,44.149v-4.878C13,38.569,13.569,38,14.271,38H20V46z"></path><path fill="#ffb74d" d="M21,40h-4v-2h4c0.552,0,1,0.448,1,1l0,0C22,39.553,21.553,40,21,40z"></path><path fill="#ffb74d" d="M21,44h-4v-2h4c0.552,0,1,0.448,1,1l0,0C22,43.553,21.553,44,21,44z"></path><path fill="#ffb74d" d="M20,46h-4v-2h4c0.552,0,1,0.448,1,1l0,0C21,45.553,20.553,46,20,46z"></path><path fill="#ffb74d" d="M21,42h-4v-2h4c0.552,0,1,0.448,1,1l0,0C22,41.553,21.553,42,21,42z"></path><g><path fill="#616161" d="M23.668,23.261c-3.124-3.124-8.19-3.124-11.314,0s-3.124,8.19,0,11.314 c3.124,3.124,8.19,3.124,11.314,0C26.792,31.45,26.792,26.385,23.668,23.261z"></path></g><g><path fill="#64b5f6" d="M22.536,24.392c-2.499-2.499-6.552-2.499-9.051,0s-2.499,6.552,0,9.051s6.552,2.499,9.051,0 S25.036,26.891,22.536,24.392z"></path></g><g><path fill="#bbdefb" d="M21.998,29.81c-0.539,0-0.984-0.431-0.999-0.974c-0.021-0.767-0.331-1.488-0.875-2.032 c-0.55-0.55-1.28-0.86-2.057-0.875c-0.552-0.01-0.991-0.466-0.981-1.018c0.01-0.546,0.456-0.982,1-0.982c0.006,0,0.012,0,0.019,0 c1.296,0.024,2.516,0.542,3.435,1.459c0.907,0.909,1.426,2.114,1.46,3.395c0.015,0.552-0.421,1.011-0.974,1.026 C22.017,29.81,22.008,29.81,21.998,29.81z"></path></g><g><rect width="2" height="2" x="17" y="36" fill="#616161"></rect></g>
</svg>